Land_normalized_precision_landing01_filtered_grf
version=1
nRows=10
nColumns=37
inDegrees=yes
endheader
time		1_ground_force_vx		1_ground_force_vy		1_ground_force_vz		1_ground_force_px		1_ground_force_py		1_ground_force_pz		1_ground_torque_x		1_ground_torque_y		1_ground_torque_z		2_ground_force_vx		2_ground_force_vy		2_ground_force_vz		2_ground_force_px		2_ground_force_py		2_ground_force_pz		2_ground_torque_x		2_ground_torque_y		2_ground_torque_z		3_ground_force_vx		3_ground_force_vy		3_ground_force_vz		3_ground_force_px		3_ground_force_py		3_ground_force_pz		3_ground_torque_x		3_ground_torque_y		3_ground_torque_z		4_ground_force_vx		4_ground_force_vy		4_ground_force_vz		4_ground_force_px		4_ground_force_py		4_ground_force_pz		4_ground_torque_x		4_ground_torque_y		4_ground_torque_z		
0.817000		1.607058		-26.261443		-9.259471		0.094092		0.000000		0.321424		0.015150		-0.247571		-0.087290		-3.810911		-18.383277		-0.685596		-0.174764		0.000000		0.315838		-0.045790		-0.220883		-0.008238		9.441730		-1.660464		-4.728516		0.381065		1.275665		1.883390		-0.014651		0.002577		0.007337		-5.140024		-0.462300		-0.439562		-0.351391		1.268462		1.872718		0.016005		0.001439		0.001369		
0.819929		2.275544		-55.793563		-28.242666		0.086007		0.000000		0.284843		0.018843		-0.461948		-0.233820		-7.108940		-51.997060		-11.405938		-0.190211		0.000000		0.307549		-0.203992		-1.492345		-0.327457		9.269297		-1.628441		-4.807377		0.381068		1.275661		1.883491		-0.012794		0.002247		0.006635		-4.987968		-0.352038		-0.437068		-0.351368		1.268448		1.872753		0.022480		-0.022272		-0.022591		
0.822859		2.207152		-75.480327		-44.803186		0.081788		0.000000		0.264390		0.016282		-0.556661		-0.330383		-8.887869		-80.344394		-22.934244		-0.197033		0.000000		0.304066		-0.290715		-2.628283		-0.750319		9.144586		-1.617756		-4.910022		0.381062		1.275657		1.883577		-0.010664		0.001887		0.005725		-4.813627		-0.241980		-0.449231		-0.351360		1.268426		1.872803		0.024717		-0.022540		-0.024067		
0.825788		0.865510		-67.936015		-48.763735		0.076409		0.000000		0.236536		0.005156		-0.402438		-0.288646		-7.161797		-85.172713		-29.803918		-0.204355		0.000000		0.301186		-0.251539		-2.991983		-1.047070		9.096580		-1.624852		-5.023602		0.381048		1.275652		1.883648		-0.008606		0.001537		0.004752		-4.660293		-0.157536		-0.473651		-0.351370		1.268397		1.872861		0.025787		-0.018382		-0.022357		
0.828717		-2.145024		-15.832753		-28.764638		0.032552		0.000000		-0.071952		0.011109		0.051277		0.123954		-0.161643		-46.442573		-24.866048		-0.226416		0.000000		0.295541		-0.006474		-1.614503		-0.862490		9.136158		-1.642967		-5.133154		0.381029		1.275647		1.883704		-0.007078		0.001273		0.003977		-4.564735		-0.116441		-0.505449		-0.351395		1.268364		1.872923		0.026319		-0.014552		-0.021925		
0.831646		-6.916450		91.701975		23.895217		0.096822		0.000000		0.329721		-0.069680		0.923469		0.240411		12.881460		50.824658		-1.152107		-0.155579		0.000000		0.300037		0.154221		0.636714		0.001774		9.253228		-1.669769		-5.223229		0.381009		1.275642		1.883747		-0.006426		0.001160		0.003627		-4.539348		-0.126115		-0.535851		-0.351431		1.268337		1.872982		0.026486		-0.011775		-0.022803		
0.834576		-13.179302		252.819788		110.787396		0.087503		0.000000		0.289571		-0.119718		2.296438		1.006260		31.040512		208.784395		45.512409		-0.183634		0.000000		0.298652		1.030231		6.930547		1.511139		9.418943		-1.710609		-5.283484		0.380987		1.275635		1.883778		-0.006691		0.001216		0.003753		-4.567566		-0.184297		-0.552060		-0.351475		1.268321		1.873031		0.026419		-0.010640		-0.024676		
0.837505		-20.453873		449.980371		223.049861		0.084330		0.000000		0.274399		-0.175933		3.870490		1.918554		51.470487		411.343014		113.990322		-0.190049		0.000000		0.295449		1.903457		15.212139		4.215565		9.593888		-1.773595		-5.313610		0.380968		1.275629		1.883798		-0.007591		0.001403		0.004204		-4.613923		-0.281778		-0.542000		-0.351520		1.268322		1.873068		0.026077		-0.011542		-0.027014		
0.840434		-28.462243		653.273542		341.335594		0.082441		0.000000		0.264476		-0.239235		5.490991		2.869040		69.983158		624.742548		196.642007		-0.193138		0.000000		0.291622		2.783563		24.849532		7.821750		9.740206		-1.859659		-5.322760		0.380950		1.275622		1.883811		-0.008627		0.001647		0.004715		-4.641504		-0.405644		-0.500533		-0.351562		1.268343		1.873088		0.025324		-0.014591		-0.029224		
0.843364		-37.687422		831.277027		440.649595		0.081164		0.000000		0.256790		-0.318229		7.019181		3.720779		82.572144		806.868300		280.423690		-0.194909		0.000000		0.286559		3.532264		34.517416		11.996865		9.833061		-1.955038		-5.321884		0.380936		1.275615		1.883819		-0.009305		0.001850		0.005036		-4.628633		-0.540170		-0.432967		-0.351599		1.268377		1.873092		0.024169		-0.019472		-0.030756		
